<svg xmlns="http://www.w3.org/2000/svg" xmlns:xlink="http://www.w3.org/1999/xlink" width="500" zoomAndPan="magnify" viewBox="0 0 375 374.999991" height="500" preserveAspectRatio="xMidYMid meet" version="1.0"><defs><g/><clipPath id="6bd8e8bd84"><path d="M 113.878906 113.878906 L 261.035156 113.878906 L 261.035156 118.292969 L 113.878906 118.292969 Z M 256.671875 118.292969 L 261.035156 118.292969 L 261.035156 256.671875 L 256.671875 256.671875 Z M 113.878906 118.292969 L 118.292969 118.292969 L 118.292969 256.671875 L 113.878906 256.671875 Z M 113.878906 256.671875 L 261.035156 256.671875 L 261.035156 261.035156 L 113.878906 261.035156 Z M 113.878906 256.671875 " clip-rule="nonzero"/></clipPath></defs><g clip-path="url(#6bd8e8bd84)"><path fill="#ffffff" d="M 113.878906 113.878906 L 261.035156 113.878906 L 261.035156 261.035156 L 113.878906 261.035156 Z M 113.878906 113.878906 " fill-opacity="1" fill-rule="nonzero"/></g><g fill="#ffffff" fill-opacity="1"><g transform="translate(135.747959, 179.651515)"><g><path d="M 33.46875 0 L 33.46875 -38.316406 L 25.019531 -38.316406 L 25.019531 -14.425781 L 11.832031 -38.316406 L 3.378906 -38.316406 L 3.378906 0 L 11.832031 0 L 11.832031 -23.890625 L 25.019531 0 Z M 33.46875 0 "/></g></g></g><g fill="#ffffff" fill-opacity="1"><g transform="translate(172.596753, 179.651515)"><g><path d="M 25.582031 -7.664062 L 11.832031 -7.664062 L 11.832031 -15.382812 L 25.019531 -15.382812 L 25.019531 -23.046875 L 11.832031 -23.046875 L 11.832031 -30.652344 L 25.582031 -30.652344 L 25.582031 -38.316406 L 3.378906 -38.316406 L 3.378906 0 L 25.582031 0 Z M 25.582031 -7.664062 "/></g></g></g><g fill="#ffffff" fill-opacity="1"><g transform="translate(201.557434, 179.651515)"><g><path d="M 37.300781 0 L 24.003906 -19.15625 L 37.300781 -38.316406 L 26.992188 -38.316406 L 18.820312 -25.019531 L 10.648438 -38.316406 L 0.339844 -38.316406 L 13.636719 -19.15625 L 0.339844 0 L 10.648438 0 L 18.820312 -13.296875 L 26.992188 0 Z M 37.300781 0 "/></g></g></g><g fill="#ffffff" fill-opacity="1"><g transform="translate(151.38077, 235.901512)"><g><path d="M 25.75 -38.316406 L 25.75 -16.171875 C 25.75 -10.875 24.171875 -7.886719 18.371094 -7.886719 C 12.621094 -7.886719 10.988281 -10.875 10.988281 -16.171875 L 10.988281 -38.316406 L 2.535156 -38.316406 L 2.535156 -14.933594 C 2.535156 -4.734375 8.394531 0.5625 18.371094 0.5625 C 28.34375 0.5625 34.203125 -4.734375 34.203125 -14.933594 L 34.203125 -38.316406 Z M 25.75 -38.316406 "/></g></g></g><g fill="#ffffff" fill-opacity="1"><g transform="translate(188.116886, 235.901512)"><g><path d="M 21.46875 5.859375 L 21.46875 0.675781 C 28.003906 -0.226562 33.808594 -3.832031 33.808594 -11.4375 C 33.808594 -26.03125 11.664062 -21.128906 11.664062 -27.949219 C 11.664062 -30.820312 14.539062 -31.667969 16.902344 -31.667969 C 20.453125 -31.667969 23.328125 -30.652344 23.777344 -26.652344 L 32.511719 -26.652344 C 32.289062 -33.808594 27.496094 -37.414062 21.46875 -38.542969 L 21.46875 -43.386719 L 14.144531 -43.386719 L 14.144531 -38.65625 C 8.226562 -37.695312 2.929688 -33.976562 2.929688 -27.273438 C 2.929688 -13.128906 25.074219 -17.917969 25.074219 -10.480469 C 25.074219 -7.042969 20.90625 -6.253906 18.257812 -6.253906 C 14.085938 -6.253906 10.648438 -8.058594 10.425781 -12.621094 L 1.691406 -12.621094 C 1.746094 -4.675781 7.269531 -0.449219 14.144531 0.621094 L 14.144531 5.859375 Z M 21.46875 5.859375 "/></g></g></g></svg>